<svg width="504" height="221" xmlns="http://www.w3.org/2000/svg" xmlns:xlink="http://www.w3.org/1999/xlink" xml:space="preserve" overflow="hidden"><g transform="translate(-372 -197)"><path d="M33.9682 181.689 67.8812 181.689 67.8812 205.425 3.45205 205.425 3.45205 113.856 33.9682 113.856ZM85.1277 61.2878C85.1277 35.0656 106.385 13.8082 132.607 13.8082 158.83 13.8082 180.087 35.0656 180.087 61.2878 180.087 87.5103 158.83 108.767 132.607 108.767 106.385 108.767 85.1277 87.5103 85.1277 61.2878ZM115.644 61.2878C115.644 70.6546 123.237 78.2477 132.604 78.2477 141.971 78.2477 149.564 70.6546 149.564 61.2878 149.564 51.921 141.971 44.3278 132.604 44.3278 123.237 44.3278 115.644 51.921 115.644 61.2878ZM285.72 76.5459 304.375 107.076 338.288 107.076 307.764 61.2947 338.281 15.5066 304.375 15.5066 285.72 46.0297 285.72 15.5135 255.204 15.5135 255.204 107.076 285.72 107.076ZM231.453 108.767C236.169 108.767 244.116 108.077 248.417 106.793L248.417 71.4368C245.324 75.5655 237.011 78.2512 231.46 78.2512 222.093 78.2512 214.5 70.658 214.5 61.2912 214.5 51.9245 222.093 44.3313 231.46 44.3313 237.011 44.3313 245.324 47.0239 248.417 51.1456L248.417 15.7966C244.109 14.5055 236.162 13.8082 231.453 13.8082 205.231 13.8082 183.974 35.0656 183.974 61.2878 183.974 87.5103 205.231 108.767 231.453 108.767ZM33.9682 107.083 3.45205 107.083 3.45205 15.5066 50.9316 15.5066C67.7845 15.5066 81.4478 27.4784 81.4478 44.3313 81.4478 57.166 74.5091 68.8478 63.29 70.9604L86.5361 107.069 52.63 107.069 33.9751 76.5528 33.9751 107.069ZM33.9682 59.6032 40.755 59.6032C46.3754 59.6032 50.9316 55.0469 50.9316 49.4265 50.9316 43.8061 46.3754 39.2499 40.755 39.2499L33.9682 39.2499ZM341.671 107.083 406.107 107.083 406.107 83.3326 372.194 83.3326 372.194 73.1559 399.327 73.1559 399.327 49.4196 372.194 49.4196 372.194 39.243 406.107 39.243 406.107 15.4997 341.671 15.4997ZM494.452 199.108 495.618 201.103 493.133 201.103 492.304 199.494C491.752 198.417 491.289 197.741 490.924 197.464 490.521 197.173 490.032 197.025 489.536 197.043L489.011 197.043 489.011 201.103 487.009 201.103 487.009 191.216 489.011 191.216C490.896 191.216 491.945 191.223 492.173 191.244 492.712 191.267 493.241 191.401 493.727 191.637 494.093 191.844 494.403 192.162 494.652 192.583 494.893 193.011 495.025 193.481 495.025 194.005 495.036 194.683 494.784 195.339 494.32 195.835 493.799 196.371 493.104 196.704 492.36 196.774 492.608 196.864 492.843 196.981 493.05 197.147 493.299 197.375 493.526 197.63 493.72 197.906 493.789 198.003 494.037 198.403 494.452 199.108ZM492.65 194.882C492.81 194.662 492.895 194.396 492.891 194.123 492.897 193.561 492.523 193.067 491.98 192.922 491.27 192.794 490.547 192.748 489.826 192.783L489.011 192.783 489.011 195.483 489.826 195.483C490.986 195.483 491.711 195.442 491.987 195.345 492.252 195.266 492.485 195.104 492.65 194.882ZM412.886 39.243 429.85 39.243 429.85 107.076 460.366 107.076 460.366 39.243 477.329 39.243 477.329 15.5066 412.893 15.5066ZM375.584 166.417C375.584 172.037 371.028 176.593 365.407 176.593 359.786 176.593 355.23 172.037 355.23 166.417L355.23 113.856 324.714 113.856 324.714 166.424C324.714 188.898 342.933 207.116 365.407 207.116 387.881 207.116 406.1 188.898 406.1 166.424L406.1 113.849 375.584 113.849ZM274.687 173.203 288.847 173.203C287.549 176.31 283.945 181.682 274.694 181.682 264.234 181.682 256.039 172.706 256.039 161.335 256.039 148.97 265.346 141.534 274.687 140.989 284.905 140.388 289.255 144.579 292.32 147.651L313.35 127.705C303.215 117.57 290.946 112.164 274.687 112.164 248.464 112.164 227.207 133.421 227.207 159.644 227.207 185.866 248.464 207.123 274.687 207.123 301.965 207.123 318.783 187.55 318.783 163.034L318.783 151.165 274.694 151.165ZM412.886 205.425 477.323 205.425 477.323 181.682 443.41 181.682 443.41 171.505 470.543 171.505 470.543 147.769 443.41 147.769 443.41 137.592 477.323 137.592 477.323 113.849 412.886 113.849ZM203.54 113.849 234.063 205.418 203.547 205.418 200.274 191.851 176.283 191.851 173.017 205.418 142.501 205.418 173.017 113.849ZM194.565 168.115 188.282 142.018 181.999 168.115ZM74.6679 205.418 139.104 205.418 139.104 181.675 105.191 181.675 105.191 171.498 132.324 171.498 132.324 147.762 105.191 147.762 105.191 137.585 139.104 137.585 139.104 113.849 74.6679 113.849ZM500.527 196.097C500.527 197.727 500.113 199.273 499.298 200.737 496.719 205.18 491.04 206.715 486.574 204.175 485.126 203.378 483.932 202.189 483.129 200.744 481.484 197.852 481.494 194.305 483.156 191.423 483.957 189.973 485.159 188.772 486.615 187.985 489.474 186.4 492.947 186.4 495.805 187.985 497.275 188.786 498.428 189.925 499.271 191.423 500.106 192.908 500.527 194.468 500.527 196.097ZM498.718 196.097C498.707 193.399 497.26 190.912 494.921 189.566 492.629 188.29 489.84 188.29 487.547 189.566 483.955 191.64 482.702 196.219 484.738 199.833 486.804 203.416 491.384 204.647 494.969 202.581 497.287 201.245 498.716 198.773 498.718 196.097Z" fill="#595959" transform="matrix(1 0 0 1.00031 372 197)"/></g></svg>